# This file uses centimeters as units for non-parametric coordinates.

mtllib Book-Scroll.mtl
g default
v -6.910268 1.764289 4.793282
v -7.312020 2.166041 4.793282
v -7.860824 2.313093 4.793282
v -8.409628 2.166041 4.793282
v -8.811380 1.764289 4.793282
v -8.958431 1.215485 4.793282
v -8.811380 0.666682 4.793282
v -8.409628 0.264930 4.793282
v -7.860824 0.117879 4.793282
v -7.312020 0.264930 4.793282
v -6.910268 0.666682 4.793282
v -6.763217 1.215485 4.793282
v -6.877563 1.783172 5.320744
v -7.293137 2.198747 5.320744
v -7.860824 2.350858 5.320744
v -8.428511 2.198747 5.320744
v -8.844086 1.783172 5.320744
v -8.996197 1.215485 5.320744
v -8.844086 0.647799 5.320744
v -8.428511 0.232224 5.320744
v -7.860824 0.080113 5.320744
v -7.293137 0.232224 5.320744
v -6.877563 0.647799 5.320744
v -6.725451 1.215485 5.320744
v -7.121387 1.642399 5.637033
v -7.433910 1.954922 5.637033
v -7.860824 2.069313 5.637033
v -8.287738 1.954922 5.637033
v -8.600261 1.642399 5.637033
v -8.714650 1.215485 5.637033
v -8.600261 0.788572 5.637033
v -8.287738 0.476049 5.637033
v -7.860824 0.361658 5.637033
v -7.433910 0.476049 5.637033
v -7.121387 0.788572 5.637033
v -7.006995 1.215485 5.637033
v -6.779671 1.839689 4.938291
v -7.236619 2.296638 4.938291
v -7.215142 2.333837 5.144123
v -6.742471 1.861166 5.144123
v -7.860824 2.463893 4.938291
v -7.860824 2.506847 5.144123
v -8.485028 2.296638 4.938291
v -8.506504 2.333837 5.144123
v -8.941978 1.839689 4.938291
v -8.979177 1.861166 5.144123
v -9.109231 1.215485 4.938291
v -9.152185 1.215485 5.144123
v -8.941978 0.591282 4.938291
v -8.979177 0.569805 5.144123
v -8.485028 0.134333 4.938291
v -8.506504 0.097133 5.144123
v -7.860824 -0.032922 4.938291
v -7.860824 -0.075876 5.144123
v -7.236619 0.134333 4.938291
v -7.215142 0.097133 5.144123
v -6.779671 0.591282 4.938291
v -6.742471 0.569805 5.144123
v -6.612417 1.215485 4.938291
v -6.569462 1.215485 5.144123
v -7.440546 1.458132 5.637033
v -7.618176 1.635761 5.637033
v -7.860822 1.700778 5.637033
v -8.103470 1.635761 5.637033
v -8.281099 1.458132 5.637033
v -8.346115 1.215485 5.637033
v -8.281099 0.972839 5.637033
v -8.103470 0.795209 5.637033
v -7.860822 0.730192 5.637033
v -7.618176 0.795209 5.637033
v -7.440546 0.972839 5.637033
v -7.375528 1.215485 5.637033
v -6.910268 1.764289 -5.059752
v -7.312020 2.166041 -5.059752
v -7.860824 2.313093 -5.059752
v -8.409628 2.166041 -5.059752
v -8.811380 1.764289 -5.059752
v -8.958431 1.215485 -5.059752
v -8.811380 0.666682 -5.059752
v -8.409628 0.264930 -5.059752
v -7.860824 0.117879 -5.059752
v -7.312020 0.264930 -5.059752
v -6.910268 0.666682 -5.059752
v -6.763217 1.215485 -5.059752
v -6.877563 1.783172 -5.560449
v -7.293137 2.198747 -5.560449
v -7.860824 2.350858 -5.560449
v -8.428511 2.198747 -5.560449
v -8.844086 1.783172 -5.560449
v -8.996197 1.215485 -5.560449
v -8.844086 0.647799 -5.560449
v -8.428511 0.232224 -5.560449
v -7.860824 0.080113 -5.560449
v -7.293137 0.232224 -5.560449
v -6.877563 0.647799 -5.560449
v -6.725451 1.215485 -5.560449
v -7.121387 1.642399 -5.876740
v -7.433910 1.954922 -5.876740
v -7.860824 2.069313 -5.876740
v -8.287738 1.954922 -5.876740
v -8.600261 1.642399 -5.876740
v -8.714650 1.215485 -5.876740
v -8.600261 0.788572 -5.876740
v -8.287738 0.476049 -5.876740
v -7.860824 0.361658 -5.876740
v -7.433910 0.476049 -5.876740
v -7.121387 0.788572 -5.876740
v -7.006995 1.215485 -5.876740
v -6.787484 1.824718 -5.222655
v -7.241131 2.278365 -5.222655
v -6.750554 1.846040 -5.426999
v -7.219808 2.315295 -5.426999
v -7.860824 2.444411 -5.222655
v -7.860824 2.487055 -5.426999
v -8.480517 2.278365 -5.222655
v -8.501838 2.315295 -5.426999
v -8.934164 1.824718 -5.222655
v -8.971095 1.846040 -5.426999
v -9.100209 1.205026 -5.222655
v -9.142854 1.205026 -5.426999
v -8.934164 0.585333 -5.222655
v -8.971095 0.564011 -5.426999
v -8.480517 0.131686 -5.222655
v -8.501838 0.094756 -5.426999
v -7.860824 -0.034360 -5.222655
v -7.860824 -0.077004 -5.426999
v -7.241131 0.131686 -5.222655
v -7.219808 0.094756 -5.426999
v -6.787484 0.585333 -5.222655
v -6.750554 0.564011 -5.426999
v -6.621438 1.205026 -5.222655
v -6.578794 1.205026 -5.426999
v -7.439329 1.458834 -5.876740
v -7.617474 1.636978 -5.876740
v -7.374124 1.215485 -5.876740
v -7.439329 0.972136 -5.876740
v -7.617474 0.793993 -5.876740
v -7.860822 0.728787 -5.876740
v -8.104172 0.793993 -5.876740
v -8.282316 0.972136 -5.876740
v -8.347520 1.215485 -5.876740
v -8.282316 1.458834 -5.876740
v -8.104172 1.636978 -5.876740
v -7.860822 1.702183 -5.876740
vt 0.839207 0.666471
vt 0.800071 0.666471
vt 0.800071 0.653166
vt 0.839207 0.653166
vt 0.760934 0.666471
vt 0.760934 0.653166
vt 0.721798 0.666471
vt 0.721798 0.653166
vt 0.682661 0.666471
vt 0.682661 0.653166
vt 0.643525 0.666471
vt 0.643525 0.653166
vt 0.604388 0.666471
vt 0.604388 0.653166
vt 0.565252 0.666471
vt 0.565252 0.653166
vt 0.526115 0.666471
vt 0.526115 0.653166
vt 0.995753 0.666471
vt 0.956616 0.666471
vt 0.956616 0.653166
vt 0.995753 0.653166
vt 0.917480 0.666471
vt 0.917480 0.653166
vt 0.878344 0.666471
vt 0.878344 0.653166
vt 0.780807 0.811142
vt 0.820137 0.771812
vt 0.833460 0.794888
vt 0.803883 0.824465
vt 0.873864 0.757416
vt 0.873864 0.784062
vt 0.927591 0.771812
vt 0.914268 0.794888
vt 0.966922 0.811142
vt 0.943846 0.824465
vt 0.981317 0.864869
vt 0.954672 0.864869
vt 0.966922 0.918596
vt 0.943846 0.905273
vt 0.927591 0.957927
vt 0.914268 0.934851
vt 0.873864 0.972323
vt 0.873864 0.945677
vt 0.820137 0.957927
vt 0.833460 0.934851
vt 0.780807 0.918596
vt 0.803883 0.905273
vt 0.766411 0.864869
vt 0.793056 0.864869
vt 0.839207 0.675845
vt 0.800071 0.675845
vt 0.768021 0.803761
vt 0.812756 0.759027
vt 0.760934 0.675845
vt 0.873864 0.742653
vt 0.721798 0.675845
vt 0.934972 0.759027
vt 0.682661 0.675845
vt 0.979707 0.803761
vt 0.643525 0.675845
vt 0.996081 0.864869
vt 0.604388 0.675845
vt 0.979707 0.925977
vt 0.565252 0.675845
vt 0.934972 0.970712
vt 0.526115 0.675845
vt 0.873864 0.987086
vt 0.995753 0.675845
vt 0.956617 0.675845
vt 0.812756 0.970712
vt 0.917480 0.675845
vt 0.768021 0.925977
vt 0.878344 0.675845
vt 0.751648 0.864869
vt 0.850900 0.825094
vt 0.834088 0.841905
vt 0.873864 0.818941
vt 0.896829 0.825094
vt 0.913639 0.841905
vt 0.919793 0.864869
vt 0.913639 0.887834
vt 0.896829 0.904645
vt 0.873864 0.910798
vt 0.850900 0.904645
vt 0.834088 0.887834
vt 0.827935 0.864869
vt 0.800071 0.691523
vt 0.839207 0.691523
vt 0.839207 0.704142
vt 0.800071 0.704142
vt 0.760934 0.691523
vt 0.760934 0.704142
vt 0.721798 0.691523
vt 0.721798 0.704142
vt 0.682661 0.691523
vt 0.682661 0.704142
vt 0.643525 0.691523
vt 0.643525 0.704142
vt 0.604388 0.691523
vt 0.604388 0.704142
vt 0.565252 0.691523
vt 0.565252 0.704142
vt 0.526115 0.691523
vt 0.526115 0.704142
vt 0.956617 0.691523
vt 0.995753 0.691523
vt 0.995753 0.704142
vt 0.956616 0.704142
vt 0.917480 0.691523
vt 0.917480 0.704142
vt 0.878344 0.691523
vt 0.878344 0.704142
vt 0.685473 0.740606
vt 0.724804 0.779937
vt 0.701728 0.793260
vt 0.672150 0.763682
vt 0.631747 0.726210
vt 0.631747 0.752856
vt 0.578020 0.740606
vt 0.591343 0.763682
vt 0.538689 0.779937
vt 0.561765 0.793260
vt 0.524293 0.833663
vt 0.550939 0.833663
vt 0.538689 0.887390
vt 0.561765 0.874067
vt 0.578020 0.926721
vt 0.591343 0.903645
vt 0.631747 0.941117
vt 0.631747 0.914471
vt 0.685473 0.926721
vt 0.672150 0.903645
vt 0.724804 0.887390
vt 0.701728 0.874067
vt 0.739200 0.833663
vt 0.712554 0.833663
vt 0.799718 0.681463
vt 0.838593 0.681463
vt 0.692413 0.729576
vt 0.736824 0.773987
vt 0.760934 0.681463
vt 0.631747 0.713320
vt 0.722151 0.681463
vt 0.571080 0.729576
vt 0.683275 0.681463
vt 0.526669 0.773987
vt 0.644237 0.681463
vt 0.510413 0.834653
vt 0.605008 0.681463
vt 0.526669 0.895320
vt 0.565611 0.681463
vt 0.571080 0.939731
vt 0.526115 0.681463
vt 0.631747 0.955986
vt 0.956257 0.681463
vt 0.995753 0.681463
vt 0.692413 0.939731
vt 0.916860 0.681463
vt 0.736824 0.895320
vt 0.877631 0.681463
vt 0.753080 0.834653
vt 0.671638 0.810632
vt 0.654778 0.793773
vt 0.631747 0.787601
vt 0.608716 0.793773
vt 0.591856 0.810632
vt 0.585685 0.833663
vt 0.591856 0.856694
vt 0.608716 0.873554
vt 0.631747 0.879725
vt 0.654778 0.873554
vt 0.671638 0.856694
vt 0.677809 0.833663
vn 0.847762 0.489455 -0.204288
vn 0.489455 0.847762 -0.204286
vn 0.489456 0.847762 -0.204286
vn 0.847762 0.489454 -0.204288
vn -0.000000 0.978912 -0.204284
vn -0.000000 0.978912 -0.204284
vn -0.489456 0.847763 -0.204282
vn -0.489455 0.847763 -0.204282
vn -0.847763 0.489456 -0.204283
vn -0.847762 0.489456 -0.204283
vn -0.978912 0.000000 -0.204284
vn -0.978912 0.000000 -0.204284
vn -0.847763 -0.489456 -0.204283
vn -0.847763 -0.489456 -0.204283
vn -0.489457 -0.847762 -0.204283
vn -0.489455 -0.847763 -0.204284
vn -0.000000 -0.978911 -0.204286
vn 0.000000 -0.978911 -0.204286
vn 0.489455 -0.847762 -0.204287
vn 0.489456 -0.847762 -0.204287
vn 0.847762 -0.489455 -0.204288
vn 0.847762 -0.489454 -0.204288
vn 0.978911 -0.000000 -0.204289
vn 0.978911 -0.000000 -0.204289
vn 0.646871 0.373471 0.664889
vn 0.373471 0.646870 0.664890
vn 0.373471 0.646870 0.664890
vn 0.646871 0.373471 0.664889
vn 0.000000 0.746942 0.664890
vn 0.000000 0.746942 0.664890
vn -0.373471 0.646871 0.664889
vn -0.373471 0.646871 0.664889
vn -0.646871 0.373470 0.664890
vn -0.646871 0.373470 0.664890
vn -0.746941 -0.000000 0.664890
vn -0.746941 -0.000000 0.664890
vn -0.646870 -0.373470 0.664890
vn -0.646871 -0.373470 0.664890
vn -0.373471 -0.646871 0.664889
vn -0.373471 -0.646871 0.664889
vn -0.000000 -0.746942 0.664890
vn -0.000000 -0.746942 0.664890
vn 0.373471 -0.646870 0.664890
vn 0.373471 -0.646870 0.664890
vn 0.646871 -0.373471 0.664889
vn 0.646871 -0.373471 0.664889
vn 0.746943 0.000000 0.664888
vn 0.746943 0.000000 0.664888
vn 0.600268 0.346565 -0.720813
vn 0.346565 0.600268 -0.720813
vn 0.346566 0.600268 -0.720813
vn 0.600268 0.346565 -0.720813
vn 0.374763 0.649110 0.661973
vn 0.649109 0.374763 0.661975
vn 0.649109 0.374763 0.661975
vn 0.374764 0.649110 0.661973
vn 0.000000 0.693130 -0.720812
vn 0.000000 0.693130 -0.720812
vn -0.000000 0.749529 0.661972
vn 0.000000 0.749529 0.661972
vn -0.346565 0.600268 -0.720813
vn -0.346565 0.600268 -0.720813
vn -0.374764 0.649111 0.661972
vn -0.374764 0.649112 0.661972
vn -0.600269 0.346564 -0.720813
vn -0.600268 0.346564 -0.720813
vn -0.649110 0.374765 0.661972
vn -0.649110 0.374765 0.661972
vn -0.693131 -0.000000 -0.720812
vn -0.693131 -0.000000 -0.720812
vn -0.749528 -0.000000 0.661973
vn -0.749528 -0.000000 0.661973
vn -0.600268 -0.346565 -0.720813
vn -0.600268 -0.346565 -0.720813
vn -0.649111 -0.374764 0.661972
vn -0.649111 -0.374764 0.661972
vn -0.346564 -0.600268 -0.720813
vn -0.346565 -0.600268 -0.720813
vn -0.374765 -0.649111 0.661972
vn -0.374764 -0.649111 0.661972
vn -0.000000 -0.693130 -0.720812
vn -0.000000 -0.693130 -0.720812
vn -0.000000 -0.749529 0.661972
vn 0.000000 -0.749529 0.661972
vn 0.346564 -0.600268 -0.720813
vn 0.346565 -0.600268 -0.720813
vn 0.374764 -0.649110 0.661973
vn 0.374764 -0.649110 0.661973
vn 0.600268 -0.346565 -0.720813
vn 0.600268 -0.346565 -0.720813
vn 0.649110 -0.374763 0.661974
vn 0.649110 -0.374762 0.661974
vn 0.693130 0.000000 -0.720813
vn 0.693130 0.000000 -0.720813
vn 0.749526 0.000000 0.661975
vn 0.749526 0.000000 0.661975
vn 0.000000 0.000000 1.000000
vn 0.000000 0.000000 1.000000
vn 0.000000 0.000000 1.000000
vn 0.000000 0.000000 1.000000
vn 0.000000 0.000000 1.000000
vn 0.000000 0.000000 1.000000
vn 0.000000 0.000000 1.000000
vn 0.000000 0.000000 1.000000
vn 0.000000 0.000000 1.000000
vn 0.000000 0.000000 1.000000
vn 0.000000 0.000000 1.000000
vn 0.000000 0.000000 1.000000
vn 0.000000 0.000000 1.000000
vn 0.000000 0.000000 1.000000
vn 0.000001 0.000000 1.000000
vn 0.000001 0.000000 1.000000
vn 0.000000 0.000000 1.000000
vn 0.000000 0.000000 1.000000
vn 0.000000 0.000000 1.000000
vn 0.000000 0.000000 1.000000
vn 0.000000 0.000000 1.000000
vn 0.000000 0.000000 1.000000
vn 0.000000 0.000000 1.000000
vn 0.000000 0.000000 1.000000
vn 0.489455 0.847763 0.204285
vn 0.847763 0.489455 0.204284
vn 0.847762 0.489456 0.204284
vn 0.489457 0.847762 0.204285
vn 0.000000 0.978912 0.204284
vn 0.000000 0.978912 0.204284
vn -0.489457 0.847762 0.204283
vn -0.489456 0.847763 0.204283
vn -0.847762 0.489456 0.204285
vn -0.847763 0.489455 0.204285
vn -0.978911 0.000000 0.204288
vn -0.978911 0.000000 0.204288
vn -0.847762 -0.489456 0.204285
vn -0.847762 -0.489456 0.204285
vn -0.489457 -0.847762 0.204283
vn -0.489455 -0.847763 0.204283
vn -0.000000 -0.978912 0.204284
vn -0.000000 -0.978912 0.204284
vn 0.489455 -0.847763 0.204285
vn 0.489456 -0.847762 0.204285
vn 0.847762 -0.489456 0.204284
vn 0.847762 -0.489456 0.204284
vn 0.978912 0.000000 0.204283
vn 0.978912 0.000000 0.204283
vn 0.373471 0.646871 -0.664889
vn 0.646871 0.373472 -0.664888
vn 0.646871 0.373472 -0.664888
vn 0.373471 0.646871 -0.664889
vn 0.000000 0.746942 -0.664889
vn -0.000000 0.746942 -0.664889
vn -0.373471 0.646871 -0.664889
vn -0.373471 0.646871 -0.664889
vn -0.646871 0.373471 -0.664889
vn -0.646871 0.373471 -0.664889
vn -0.746942 0.000000 -0.664890
vn -0.746942 0.000000 -0.664890
vn -0.646871 -0.373471 -0.664889
vn -0.646871 -0.373471 -0.664889
vn -0.373471 -0.646871 -0.664889
vn -0.373471 -0.646871 -0.664889
vn 0.000000 -0.746942 -0.664890
vn -0.000000 -0.746942 -0.664890
vn 0.373471 -0.646871 -0.664889
vn 0.373471 -0.646871 -0.664889
vn 0.646871 -0.373472 -0.664888
vn 0.646871 -0.373472 -0.664888
vn 0.746943 0.000000 -0.664888
vn 0.746943 0.000000 -0.664888
vn 0.385130 0.672900 0.631570
vn 0.661344 0.387520 0.642225
vn 0.666594 0.377812 0.642581
vn 0.390721 0.669552 0.631694
vn 0.592093 0.347369 -0.727160
vn 0.345663 0.604399 -0.717788
vn 0.351194 0.601057 -0.717909
vn 0.597208 0.337763 -0.727502
vn -0.000000 0.778541 0.627594
vn -0.000000 0.778541 0.627594
vn -0.000000 0.699868 -0.714272
vn 0.000000 0.699868 -0.714273
vn -0.385130 0.672900 0.631569
vn -0.390721 0.669553 0.631694
vn -0.345664 0.604400 -0.717786
vn -0.351194 0.601059 -0.717907
vn -0.661345 0.387520 0.642224
vn -0.666595 0.377813 0.642580
vn -0.592092 0.347370 -0.727160
vn -0.597207 0.337763 -0.727502
vn -0.754486 0.005507 0.656293
vn -0.754087 -0.006846 0.656739
vn -0.673216 0.005305 -0.739427
vn -0.672738 -0.006784 -0.739849
vn -0.645346 -0.367262 0.669812
vn -0.639905 -0.376102 0.670126
vn -0.573943 -0.326269 -0.751092
vn -0.568604 -0.334829 -0.751385
vn -0.369151 -0.634187 0.679363
vn -0.364029 -0.637034 0.679463
vn -0.327536 -0.562355 -0.759261
vn -0.322572 -0.565093 -0.759353
vn 0.000000 -0.730617 0.682787
vn 0.000000 -0.730617 0.682787
vn -0.000000 -0.647370 -0.762176
vn 0.000000 -0.647370 -0.762176
vn 0.369151 -0.634187 0.679364
vn 0.364029 -0.637034 0.679464
vn 0.327534 -0.562355 -0.759262
vn 0.322572 -0.565091 -0.759354
vn 0.645344 -0.367262 0.669813
vn 0.639904 -0.376102 0.670127
vn 0.573943 -0.326268 -0.751092
vn 0.568604 -0.334829 -0.751385
vn 0.754484 0.005507 0.656295
vn 0.754085 -0.006846 0.656741
vn 0.673217 0.005306 -0.739426
vn 0.672739 -0.006784 -0.739849
vn 0.000000 0.000000 -1.000000
vn -0.000000 0.000000 -1.000000
vn -0.000000 0.000000 -1.000000
vn 0.000000 0.000000 -1.000000
vn 0.000000 0.000000 -1.000000
vn 0.000000 0.000000 -1.000000
vn 0.000000 0.000000 -1.000000
vn -0.000000 0.000000 -1.000000
vn 0.000000 0.000000 -1.000000
vn 0.000000 0.000000 -1.000000
vn 0.000000 0.000000 -1.000000
vn 0.000000 0.000000 -1.000000
vn 0.000000 0.000000 -1.000000
vn 0.000000 0.000000 -1.000000
vn 0.000001 0.000000 -1.000000
vn 0.000001 0.000000 -1.000000
vn 0.000000 0.000000 -1.000000
vn 0.000000 0.000000 -1.000000
vn -0.000000 0.000000 -1.000000
vn -0.000000 0.000000 -1.000000
vn -0.000000 0.000000 -1.000000
vn -0.000000 0.000000 -1.000000
vn -0.000000 0.000000 -1.000000
vn -0.000000 0.000000 -1.000000
s 1
g polySurface2
usemtl lambert2SG
f 37/1/1 38/2/2 39/3/3 40/4/4
f 38/2/2 41/5/5 42/6/6 39/3/3
f 41/5/5 43/7/7 44/8/8 42/6/6
f 43/7/7 45/9/9 46/10/10 44/8/8
f 45/9/9 47/11/11 48/12/12 46/10/10
f 47/11/11 49/13/13 50/14/14 48/12/12
f 49/13/13 51/15/15 52/16/16 50/14/14
f 51/15/15 53/17/17 54/18/18 52/16/16
f 53/19/17 55/20/19 56/21/20 54/22/18
f 55/20/19 57/23/21 58/24/22 56/21/20
f 57/23/21 59/25/23 60/26/24 58/24/22
f 59/25/23 37/1/1 40/4/4 60/26/24
s 2
f 13/27/25 14/28/26 26/29/27 25/30/28
f 14/28/26 15/31/29 27/32/30 26/29/27
f 15/31/29 16/33/31 28/34/32 27/32/30
f 16/33/31 17/35/33 29/36/34 28/34/32
f 17/35/33 18/37/35 30/38/36 29/36/34
f 18/37/35 19/39/37 31/40/38 30/38/36
f 19/39/37 20/41/39 32/42/40 31/40/38
f 20/41/39 21/43/41 33/44/42 32/42/40
f 21/43/41 22/45/43 34/46/44 33/44/42
f 22/45/43 23/47/45 35/48/46 34/46/44
f 23/47/45 24/49/47 36/50/48 35/48/46
f 24/49/47 13/27/25 25/30/28 36/50/48
s 3
f 1/51/49 2/52/50 38/2/51 37/1/52
s 4
f 14/28/53 13/27/54 40/53/55 39/54/56
s 3
f 2/52/50 3/55/57 41/5/58 38/2/51
s 4
f 15/31/59 14/28/53 39/54/56 42/56/60
s 3
f 3/55/57 4/57/61 43/7/62 41/5/58
s 4
f 16/33/63 15/31/59 42/56/60 44/58/64
s 3
f 4/57/61 5/59/65 45/9/66 43/7/62
s 4
f 17/35/67 16/33/63 44/58/64 46/60/68
s 3
f 5/59/65 6/61/69 47/11/70 45/9/66
s 4
f 18/37/71 17/35/67 46/60/68 48/62/72
s 3
f 6/61/69 7/63/73 49/13/74 47/11/70
s 4
f 19/39/75 18/37/71 48/62/72 50/64/76
s 3
f 7/63/73 8/65/77 51/15/78 49/13/74
s 4
f 20/41/79 19/39/75 50/64/76 52/66/80
s 3
f 8/65/77 9/67/81 53/17/82 51/15/78
s 4
f 21/43/83 20/41/79 52/66/80 54/68/84
s 3
f 9/69/81 10/70/85 55/20/86 53/19/82
s 4
f 22/45/87 21/43/83 54/68/84 56/71/88
s 3
f 10/70/85 11/72/89 57/23/90 55/20/86
s 4
f 23/47/91 22/45/87 56/71/88 58/73/92
s 3
f 11/72/89 12/74/93 59/25/94 57/23/90
s 4
f 24/49/95 23/47/91 58/73/92 60/75/96
s 3
f 12/74/93 1/51/49 37/1/52 59/25/94
s 4
f 13/27/54 24/49/95 60/75/96 40/53/55
s 5
f 25/30/97 26/29/98 62/76/99 61/77/100
f 26/29/98 27/32/101 63/78/102 62/76/99
f 27/32/101 28/34/103 64/79/104 63/78/102
f 28/34/103 29/36/105 65/80/106 64/79/104
f 29/36/105 30/38/107 66/81/108 65/80/106
f 30/38/107 31/40/109 67/82/110 66/81/108
f 31/40/109 32/42/111 68/83/112 67/82/110
f 32/42/111 33/44/113 69/84/114 68/83/112
f 33/44/113 34/46/115 70/85/116 69/84/114
f 34/46/115 35/48/117 71/86/118 70/85/116
f 35/48/117 36/50/119 72/87/120 71/86/118
f 36/50/119 25/30/97 61/77/100 72/87/120
s 6
f 110/88/121 109/89/122 111/90/123 112/91/124
f 113/92/125 110/88/121 112/91/124 114/93/126
f 115/94/127 113/92/125 114/93/126 116/95/128
f 117/96/129 115/94/127 116/95/128 118/97/130
f 119/98/131 117/96/129 118/97/130 120/99/132
f 121/100/133 119/98/131 120/99/132 122/101/134
f 123/102/135 121/100/133 122/101/134 124/103/136
f 125/104/137 123/102/135 124/103/136 126/105/138
f 127/106/139 125/107/137 126/108/138 128/109/140
f 129/110/141 127/106/139 128/109/140 130/111/142
f 131/112/143 129/110/141 130/111/142 132/113/144
f 109/89/122 131/112/143 132/113/144 111/90/123
s 7
f 86/114/145 85/115/146 97/116/147 98/117/148
f 87/118/149 86/114/145 98/117/148 99/119/150
f 88/120/151 87/118/149 99/119/150 100/121/152
f 89/122/153 88/120/151 100/121/152 101/123/154
f 90/124/155 89/122/153 101/123/154 102/125/156
f 91/126/157 90/124/155 102/125/156 103/127/158
f 92/128/159 91/126/157 103/127/158 104/129/160
f 93/130/161 92/128/159 104/129/160 105/131/162
f 94/132/163 93/130/161 105/131/162 106/133/164
f 95/134/165 94/132/163 106/133/164 107/135/166
f 96/136/167 95/134/165 107/135/166 108/137/168
f 85/115/146 96/136/167 108/137/168 97/116/147
s 8
f 74/138/169 73/139/170 109/89/171 110/88/172
s 9
f 85/115/173 86/114/174 112/140/175 111/141/176
s 8
f 75/142/177 74/138/169 110/88/172 113/92/178
s 9
f 86/114/174 87/118/179 114/143/180 112/140/175
s 8
f 76/144/181 75/142/177 113/92/178 115/94/182
s 9
f 87/118/179 88/120/183 116/145/184 114/143/180
s 8
f 77/146/185 76/144/181 115/94/182 117/96/186
s 9
f 88/120/183 89/122/187 118/147/188 116/145/184
s 8
f 78/148/189 77/146/185 117/96/186 119/98/190
s 9
f 89/122/187 90/124/191 120/149/192 118/147/188
s 8
f 79/150/193 78/148/189 119/98/190 121/100/194
s 9
f 90/124/191 91/126/195 122/151/196 120/149/192
s 8
f 80/152/197 79/150/193 121/100/194 123/102/198
s 9
f 91/126/195 92/128/199 124/153/200 122/151/196
s 8
f 81/154/201 80/152/197 123/102/198 125/104/202
s 9
f 92/128/199 93/130/203 126/155/204 124/153/200
s 8
f 82/156/205 81/157/201 125/107/202 127/106/206
s 9
f 93/130/203 94/132/207 128/158/208 126/155/204
s 8
f 83/159/209 82/156/205 127/106/206 129/110/210
s 9
f 94/132/207 95/134/211 130/160/212 128/158/208
s 8
f 84/161/213 83/159/209 129/110/210 131/112/214
s 9
f 95/134/211 96/136/215 132/162/216 130/160/212
s 8
f 73/139/170 84/161/213 131/112/214 109/89/171
s 9
f 96/136/215 85/115/173 111/141/176 132/162/216
s 10
f 98/117/217 97/116/218 133/163/219 134/164/220
f 99/119/221 98/117/217 134/164/220 144/165/222
f 100/121/223 99/119/221 144/165/222 143/166/224
f 101/123/225 100/121/223 143/166/224 142/167/226
f 102/125/227 101/123/225 142/167/226 141/168/228
f 103/127/229 102/125/227 141/168/228 140/169/230
f 104/129/231 103/127/229 140/169/230 139/170/232
f 105/131/233 104/129/231 139/170/232 138/171/234
f 106/133/235 105/131/233 138/171/234 137/172/236
f 107/135/237 106/133/235 137/172/236 136/173/238
f 108/137/239 107/135/237 136/173/238 135/174/240
f 97/116/218 108/137/239 135/174/240 133/163/219
g default
v -7.853746 0.120553 4.802133
v 6.761802 0.120553 4.802133
v -7.853746 0.179987 4.802133
v 6.761802 0.179987 4.802133
v -7.853746 0.179987 -5.012331
v 6.761802 0.179987 -5.012331
v -7.853746 0.120553 -5.012331
v 6.761802 0.120553 -5.012331
v 4.673867 -0.074138 -5.012331
v 4.673867 -0.133572 -5.012331
v 4.673867 -0.133572 4.802133
v 4.673867 -0.074138 4.802133
v 2.585930 -0.038145 -5.012331
v 2.585930 -0.097579 -5.012331
v 2.585930 -0.097579 4.802133
v 2.585930 -0.038145 4.802133
v 0.497995 0.452236 -5.012331
v 0.497995 0.392802 -5.012331
v 0.497995 0.392802 4.802133
v 0.497995 0.452236 4.802133
v -1.589941 0.444965 -5.012331
v -1.589941 0.385531 -5.012331
v -1.589941 0.385531 4.802133
v -1.589941 0.444965 4.802133
v -3.677876 0.812972 -5.012331
v -3.677876 0.753537 -5.012331
v -3.677876 0.753537 4.802133
v -3.677876 0.812972 4.802133
v -5.765810 0.658281 -5.012331
v -5.765810 0.598847 -5.012331
v -5.765810 0.598847 4.802133
v -5.765810 0.658281 4.802133
v -7.439329 1.458834 -5.876740
v -7.617474 1.636978 -5.876740
v -7.860822 1.702183 -5.876740
v -8.104172 1.636978 -5.876740
v -8.282316 1.458834 -5.876740
v -8.347520 1.215485 -5.876740
v -8.282316 0.972136 -5.876740
v -8.104172 0.793993 -5.876740
v -7.860822 0.728787 -5.876740
v -7.617474 0.793993 -5.876740
v -7.439329 0.972136 -5.876740
v -7.374124 1.215485 -5.876740
v -7.860822 1.215485 -6.580845
v -7.440546 1.458132 5.637033
v -7.618176 1.635761 5.637033
v -7.860822 1.700778 5.637033
v -8.103470 1.635761 5.637033
v -8.281099 1.458132 5.637033
v -8.346115 1.215485 5.637033
v -8.281099 0.972839 5.637033
v -8.103470 0.795209 5.637033
v -7.860822 0.730192 5.637033
v -7.618176 0.795209 5.637033
v -7.440546 0.972839 5.637033
v -7.375528 1.215485 5.637033
v -7.860822 1.215485 6.298290
v -7.523376 1.410310 -6.580845
v -7.439329 1.458834 -6.487103
v -7.617474 1.636978 -6.487103
v -7.665998 1.552932 -6.580845
v -7.860822 1.702183 -6.487103
v -7.860822 1.605135 -6.580845
v -8.104172 1.636978 -6.487103
v -8.055648 1.552932 -6.580845
v -8.282316 1.458834 -6.487103
v -8.198270 1.410310 -6.580845
v -8.347520 1.215485 -6.487103
v -8.250472 1.215485 -6.580845
v -8.282316 0.972136 -6.487103
v -8.198270 1.020661 -6.580845
v -8.104172 0.793993 -6.487103
v -8.055648 0.878039 -6.580845
v -7.860822 0.728787 -6.487103
v -7.860822 0.825836 -6.580845
v -7.617474 0.793993 -6.487103
v -7.665998 0.878039 -6.580845
v -7.439329 0.972136 -6.487103
v -7.523376 1.020661 -6.580845
v -7.374124 1.215485 -6.487103
v -7.471172 1.215485 -6.580845
v -7.440546 1.458132 6.204549
v -7.524592 1.409608 6.298290
v -7.666700 1.551715 6.298290
v -7.618176 1.635761 6.204549
v -7.860822 1.603730 6.298290
v -7.860822 1.700778 6.204549
v -8.054946 1.551715 6.298290
v -8.103470 1.635761 6.204549
v -8.197053 1.409608 6.298290
v -8.281099 1.458132 6.204549
v -8.249067 1.215485 6.298290
v -8.346115 1.215485 6.204549
v -8.197053 1.021363 6.298290
v -8.281099 0.972839 6.204549
v -8.054946 0.879256 6.298290
v -8.103470 0.795209 6.204549
v -7.860822 0.827241 6.298290
v -7.860822 0.730192 6.204549
v -7.666700 0.879256 6.298290
v -7.618176 0.795209 6.204549
v -7.524592 1.021363 6.298290
v -7.440546 0.972839 6.204549
v -7.472577 1.215485 6.298290
v -7.375528 1.215485 6.204549
v -6.910268 1.764289 -5.059752
v -7.312020 2.166041 -5.059752
v -6.910268 1.764289 4.793282
v -7.312020 2.166041 4.793282
v -7.860824 2.313093 -5.059752
v -7.860824 2.313093 4.793282
v -8.409628 2.166041 -5.059752
v -8.409628 2.166041 4.793282
v -8.811380 1.764289 -5.059752
v -8.811380 1.764289 4.793282
v -8.958431 1.215485 -5.059752
v -8.958431 1.215485 4.793282
v -8.811380 0.666682 -5.059752
v -8.811380 0.666682 4.793282
v -8.409628 0.264930 -5.059752
v -8.409628 0.264930 4.793282
v -7.860824 0.117879 -5.059752
v -7.860824 0.117879 4.793282
v -7.312020 0.264930 -5.059752
v -7.312020 0.264930 4.793282
v -6.910268 0.666682 -5.059752
v -6.910268 0.666682 4.793282
v -6.763217 1.215485 -5.059752
v -6.763217 1.215485 4.793282
vt 0.429628 0.638913
vt 0.004634 0.638913
vt 0.005331 0.635024
vt 0.428932 0.635024
vt 0.004635 0.003407
vt 0.429629 0.003407
vt 0.428932 0.007296
vt 0.005331 0.007296
vt 0.428688 0.096972
vt 0.005575 0.096971
vt 0.854217 0.006165
vt 0.854217 0.096164
vt 0.431174 0.096972
vt 0.431174 0.007296
vt 0.431174 0.545349
vt 0.854217 0.546157
vt 0.854217 0.636155
vt 0.431174 0.635024
vt 0.005575 0.545349
vt 0.428688 0.545349
vt 0.431174 0.455673
vt 0.854217 0.456158
vt 0.005575 0.455673
vt 0.428688 0.455673
vt 0.431174 0.365998
vt 0.854217 0.366159
vt 0.005575 0.365998
vt 0.428688 0.365998
vt 0.431174 0.276322
vt 0.854217 0.276161
vt 0.005575 0.276322
vt 0.428688 0.276322
vt 0.431174 0.186647
vt 0.854217 0.186162
vt 0.005575 0.186647
vt 0.428688 0.186647
vt 0.003090 0.097780
vt 0.003090 0.008427
vt 0.003090 0.187131
vt 0.003090 0.276484
vt 0.003090 0.365836
vt 0.003090 0.455188
vt 0.003090 0.544541
vt 0.003090 0.633892
vt 0.616788 0.808744
vt 0.613062 0.802290
vt 0.631747 0.797284
vt 0.631747 0.804735
vt 0.605837 0.819694
vt 0.599384 0.815969
vt 0.601829 0.834653
vt 0.594377 0.834653
vt 0.605837 0.849612
vt 0.599384 0.853338
vt 0.616788 0.860563
vt 0.613062 0.867016
vt 0.631747 0.864571
vt 0.631747 0.872023
vt 0.646706 0.860563
vt 0.650431 0.867016
vt 0.657656 0.849612
vt 0.664109 0.853338
vt 0.661665 0.834653
vt 0.669116 0.834653
vt 0.657656 0.819694
vt 0.664110 0.815969
vt 0.646706 0.808743
vt 0.650431 0.802290
vt 0.906134 0.883500
vt 0.899680 0.879774
vt 0.903674 0.864869
vt 0.911126 0.864869
vt 0.892495 0.897139
vt 0.888769 0.890685
vt 0.873864 0.902131
vt 0.873864 0.894679
vt 0.855233 0.897139
vt 0.858959 0.890685
vt 0.841595 0.883500
vt 0.848048 0.879774
vt 0.836603 0.864869
vt 0.844054 0.864869
vt 0.841595 0.846238
vt 0.848048 0.849964
vt 0.855233 0.832600
vt 0.858959 0.839053
vt 0.873864 0.827608
vt 0.873864 0.835059
vt 0.892495 0.832600
vt 0.888769 0.839053
vt 0.906134 0.846238
vt 0.899680 0.849964
vt 0.631747 0.834653
vt 0.873864 0.864869
vt 0.930155 0.467430
vt 0.930155 0.441589
vt 0.987435 0.441589
vt 0.987435 0.467430
vt 0.930155 0.493271
vt 0.987435 0.493271
vt 0.930155 0.519113
vt 0.987435 0.519112
vt 0.930155 0.544953
vt 0.987435 0.544953
vt 0.930155 0.570794
vt 0.987435 0.570794
vt 0.930155 0.596635
vt 0.987435 0.596635
vt 0.930156 0.622476
vt 0.987435 0.622476
vt 0.930155 0.648317
vt 0.987435 0.648317
vt 0.930155 0.364066
vt 0.930155 0.338225
vt 0.987435 0.338225
vt 0.987435 0.364066
vt 0.930155 0.389908
vt 0.987435 0.389907
vt 0.930155 0.415748
vt 0.987435 0.415748
vt 0.996123 0.113927
vt 0.996123 0.141406
vt 0.939488 0.141406
vt 0.939488 0.113927
vt 0.996123 0.168885
vt 0.939488 0.168885
vt 0.996123 0.196365
vt 0.939488 0.196365
vt 0.996123 0.223844
vt 0.939488 0.223844
vt 0.996123 0.251323
vt 0.939488 0.251323
vt 0.996123 0.278802
vt 0.939488 0.278802
vt 0.996123 0.306281
vt 0.939488 0.306281
vt 0.996123 0.333761
vt 0.939488 0.333761
vt 0.996123 0.004010
vt 0.996123 0.031489
vt 0.939488 0.031489
vt 0.939488 0.004010
vt 0.996123 0.058968
vt 0.939488 0.058968
vt 0.996123 0.086448
vt 0.939488 0.086448
vt 0.002278 0.881780
vt 0.002278 0.853057
vt 0.489658 0.881780
vt 0.489658 0.853057
vt 0.002278 0.824334
vt 0.489658 0.824334
vt 0.002278 0.795612
vt 0.489658 0.795612
vt 0.002278 0.766889
vt 0.489658 0.766889
vt 0.002278 0.738166
vt 0.489658 0.738166
vt 0.002278 0.709444
vt 0.489658 0.709444
vt 0.002278 0.680721
vt 0.489658 0.680721
vt 0.002278 0.651999
vt 0.002278 0.996670
vt 0.489658 0.651999
vt 0.489658 0.996670
vt 0.002278 0.967947
vt 0.489658 0.967947
vt 0.002278 0.939225
vt 0.489658 0.939225
vt 0.002278 0.910502
vt 0.489658 0.910502
vn 0.196688 -0.980453 0.005086
vn 0.149866 -0.988686 0.006275
vn -0.149867 0.988690 0.005699
vn -0.249396 0.968378 0.006705
vn -0.149867 0.988690 -0.005699
vn -0.249396 0.968378 -0.006705
vn 0.149866 -0.988686 -0.006275
vn 0.196688 -0.980453 -0.005086
vn 0.148509 -0.988890 0.006450
vn 0.148509 -0.988890 -0.006450
vn -0.092842 0.995665 -0.005565
vn -0.092842 0.995665 0.005565
vn -0.052164 0.998619 -0.006314
vn 0.052164 -0.998622 -0.005781
vn 0.052164 -0.998622 0.005781
vn -0.052164 0.998619 0.006314
vn -0.125060 -0.992133 -0.005600
vn 0.125059 0.992129 -0.006416
vn -0.125060 -0.992133 0.005600
vn 0.125059 0.992129 0.006416
vn -0.114922 -0.993353 -0.006464
vn 0.114923 0.993359 -0.005567
vn -0.114922 -0.993353 0.006464
vn 0.114923 0.993359 0.005567
vn -0.086064 -0.996273 -0.005691
vn 0.086063 0.996269 -0.006375
vn -0.086064 -0.996273 0.005691
vn 0.086063 0.996269 0.006375
vn -0.051015 -0.998677 -0.006526
vn 0.051016 0.998682 -0.005570
vn -0.051015 -0.998677 0.006526
vn 0.051016 0.998682 0.005570
vn 0.866026 0.500000 0.000000
vn 0.500000 0.866025 0.000000
vn 0.500000 0.866025 0.000000
vn 0.866026 0.500000 0.000000
vn -0.000000 1.000000 0.000000
vn -0.000000 1.000000 0.000000
vn -0.500000 0.866026 0.000000
vn -0.500000 0.866026 0.000000
vn -0.866026 0.500000 0.000000
vn -0.866026 0.500000 0.000000
vn -1.000000 0.000000 0.000000
vn -1.000000 0.000000 0.000000
vn -0.866025 -0.500000 0.000000
vn -0.866025 -0.500000 0.000000
vn -0.500000 -0.866026 0.000000
vn -0.500000 -0.866026 0.000000
vn 0.000000 -1.000000 0.000000
vn 0.000000 -1.000000 0.000000
vn 0.500000 -0.866025 0.000000
vn 0.500000 -0.866025 0.000000
vn 0.866025 -0.500000 0.000000
vn 0.866025 -0.500000 0.000000
vn 1.000000 0.000000 0.000000
vn 1.000000 0.000000 0.000000
vn 0.331748 0.191536 -0.923719
vn 0.601668 0.347376 -0.719253
vn 0.694749 0.000000 -0.719252
vn 0.383071 0.000000 -0.923719
vn 0.191536 0.331748 -0.923719
vn 0.347375 0.601669 -0.719253
vn 0.000000 0.383070 -0.923719
vn 0.000000 0.694749 -0.719253
vn -0.191533 0.331749 -0.923720
vn -0.347372 0.601672 -0.719253
vn -0.331747 0.191534 -0.923720
vn -0.601669 0.347373 -0.719254
vn -0.383068 0.000000 -0.923720
vn -0.694750 0.000000 -0.719252
vn -0.331748 -0.191534 -0.923720
vn -0.601670 -0.347373 -0.719253
vn -0.191534 -0.331748 -0.923719
vn -0.347373 -0.601671 -0.719253
vn 0.000000 -0.383070 -0.923719
vn -0.000000 -0.694749 -0.719253
vn 0.191535 -0.331748 -0.923720
vn 0.347375 -0.601669 -0.719253
vn 0.331748 -0.191536 -0.923719
vn 0.601669 -0.347375 -0.719253
vn 0.601667 0.347375 0.719255
vn 0.332395 0.191909 0.923409
vn 0.383817 -0.000000 0.923409
vn 0.694747 -0.000000 0.719255
vn 0.347373 0.601668 0.719255
vn 0.191909 0.332395 0.923409
vn 0.000001 0.694747 0.719254
vn -0.000001 0.383817 0.923409
vn -0.347372 0.601670 0.719254
vn -0.191909 0.332395 0.923409
vn -0.601670 0.347372 0.719254
vn -0.332395 0.191907 0.923410
vn -0.694748 -0.000000 0.719253
vn -0.383816 -0.000000 0.923410
vn -0.601670 -0.347371 0.719254
vn -0.332395 -0.191907 0.923410
vn -0.347373 -0.601669 0.719254
vn -0.191907 -0.332395 0.923410
vn -0.000000 -0.694747 0.719254
vn 0.000000 -0.383817 0.923409
vn 0.347374 -0.601668 0.719254
vn 0.191909 -0.332394 0.923410
vn 0.601668 -0.347375 0.719254
vn 0.332395 -0.191909 0.923409
vn 0.000000 0.000000 -1.000000
vn -0.000000 0.000000 1.000000
vn 0.500000 0.866025 0.000000
vn 0.866024 0.500003 0.000000
vn 0.866024 0.500003 0.000000
vn 0.500000 0.866025 0.000000
vn 0.000000 1.000000 0.000000
vn 0.000000 1.000000 0.000000
vn -0.499998 0.866026 0.000000
vn -0.499998 0.866026 0.000000
vn -0.866027 0.499998 0.000000
vn -0.866027 0.499998 0.000000
vn -1.000000 0.000000 0.000000
vn -1.000000 0.000000 0.000000
vn -0.866027 -0.499998 0.000000
vn -0.866027 -0.499998 0.000000
vn -0.499999 -0.866026 0.000000
vn -0.499999 -0.866026 0.000000
vn 0.000000 -1.000000 0.000000
vn 0.000000 -1.000000 0.000000
vn 0.500001 -0.866025 0.000000
vn 0.500001 -0.866025 0.000000
vn 0.866024 -0.500002 0.000000
vn 0.866024 -0.500002 0.000000
vn 1.000000 0.000000 0.000000
vn 1.000000 0.000000 0.000000
vn 0.866024 0.500002 0.000000
vn 0.500000 0.866026 0.000000
vn 0.500000 0.866026 0.000000
vn 0.866024 0.500002 0.000000
vn -0.000000 1.000000 0.000000
vn -0.000000 1.000000 0.000000
vn -0.499999 0.866026 0.000000
vn -0.499999 0.866026 0.000000
vn -0.866027 0.499998 0.000000
vn -0.866027 0.499998 0.000000
vn -1.000000 0.000000 0.000000
vn -1.000000 0.000000 0.000000
vn -0.866027 -0.499998 0.000000
vn -0.866027 -0.499998 0.000000
vn -0.499999 -0.866026 0.000000
vn -0.499999 -0.866026 0.000000
vn 0.000000 -1.000000 0.000000
vn 0.000000 -1.000000 0.000000
vn 0.500000 -0.866026 0.000000
vn 0.500000 -0.866026 0.000000
vn 0.866024 -0.500002 0.000000
vn 0.866024 -0.500002 0.000000
vn 1.000000 0.000000 0.000000
vn 1.000000 0.000000 0.000000
s 1
g polySurface3 pCube2
usemtl lambert2SG
f 145/188/241 175/187/242 176/183/243 147/181/244
f 147/181/244 176/183/243 173/184/245 149/182/246
f 149/182/246 173/184/245 174/211/247 151/212/248
f 151/185/248 174/186/247 175/187/242 145/188/241
f 146/175/249 152/176/250 150/177/251 148/178/252
f 151/179/248 145/180/241 147/181/244 149/182/246
f 153/193/253 150/177/251 152/218/250 154/217/254
f 155/189/255 154/190/254 152/191/250 146/192/249
f 156/194/256 155/189/255 146/192/249 148/178/252
f 153/193/253 156/194/256 148/178/252 150/177/251
f 158/216/257 157/197/258 153/193/253 154/217/254
f 159/195/259 158/196/257 154/190/254 155/189/255
f 160/198/260 159/195/259 155/189/255 156/194/256
f 153/193/253 157/197/258 160/198/260 156/194/256
f 162/215/261 161/201/262 157/197/258 158/216/257
f 163/199/263 162/200/261 158/196/257 159/195/259
f 164/202/264 163/199/263 159/195/259 160/198/260
f 157/197/258 161/201/262 164/202/264 160/198/260
f 166/214/265 165/205/266 161/201/262 162/215/261
f 167/203/267 166/204/265 162/200/261 163/199/263
f 168/206/268 167/203/267 163/199/263 164/202/264
f 161/201/262 165/205/266 168/206/268 164/202/264
f 170/213/269 169/209/270 165/205/266 166/214/265
f 171/207/271 170/208/269 166/204/265 167/203/267
f 172/210/272 171/207/271 167/203/267 168/206/268
f 165/205/266 169/209/270 172/210/272 168/206/268
f 174/211/247 173/184/245 169/209/270 170/213/269
f 175/187/242 174/186/247 170/208/269 171/207/271
f 176/183/243 175/187/242 171/207/271 172/210/272
f 169/209/270 173/184/245 176/183/243 172/210/272
s 3
f 251/321/273 252/322/274 254/324/275 253/323/276
f 252/322/274 255/325/277 256/326/278 254/324/275
f 255/325/277 257/327/279 258/328/280 256/326/278
f 257/327/279 259/329/281 260/330/282 258/328/280
f 259/329/281 261/331/283 262/332/284 260/330/282
f 261/331/283 263/333/285 264/334/286 262/332/284
f 263/333/285 265/335/287 266/336/288 264/334/286
f 265/335/287 267/337/289 268/339/290 266/336/288
f 267/338/289 269/341/291 270/342/292 268/340/290
f 269/341/291 271/343/293 272/344/294 270/342/292
f 271/343/293 273/345/295 274/346/296 272/344/294
f 273/345/295 251/321/273 253/323/276 274/346/296
s 4
f 203/219/297 204/220/298 225/221/299 226/222/300
f 204/220/298 203/219/297 206/223/301 205/224/302
f 205/224/302 206/223/301 208/225/303 207/226/304
f 207/226/304 208/225/303 210/227/305 209/228/306
f 209/228/306 210/227/305 212/229/307 211/230/308
f 211/230/308 212/229/307 214/231/309 213/232/310
f 213/232/310 214/231/309 216/233/311 215/234/312
f 215/234/312 216/233/311 218/235/313 217/236/314
f 217/236/314 218/235/313 220/237/315 219/238/316
f 219/238/316 220/237/315 222/239/317 221/240/318
f 221/240/318 222/239/317 224/241/319 223/242/320
f 223/242/320 224/241/319 226/222/300 225/221/299
s 5
f 227/243/321 228/244/322 249/245/323 250/246/324
f 228/244/322 227/243/321 230/247/325 229/248/326
f 229/248/326 230/247/325 232/249/327 231/250/328
f 231/250/328 232/249/327 234/251/329 233/252/330
f 233/252/330 234/251/329 236/253/331 235/254/332
f 235/254/332 236/253/331 238/255/333 237/256/334
f 237/256/334 238/255/333 240/257/335 239/258/336
f 239/258/336 240/257/335 242/259/337 241/260/338
f 241/260/338 242/259/337 244/261/339 243/262/340
f 243/262/340 244/261/339 246/263/341 245/264/342
f 245/264/342 246/263/341 248/265/343 247/266/344
f 247/266/344 248/265/343 250/246/324 249/245/323
s 4
f 206/223/301 203/219/297 189/267/345
f 208/225/303 206/223/301 189/267/345
f 210/227/305 208/225/303 189/267/345
f 212/229/307 210/227/305 189/267/345
f 214/231/309 212/229/307 189/267/345
f 216/233/311 214/231/309 189/267/345
f 218/235/313 216/233/311 189/267/345
f 220/237/315 218/235/313 189/267/345
f 222/239/317 220/237/315 189/267/345
f 224/241/319 222/239/317 189/267/345
f 226/222/300 224/241/319 189/267/345
f 203/219/297 226/222/300 189/267/345
s 5
f 228/244/322 229/248/326 202/268/346
f 229/248/326 231/250/328 202/268/346
f 231/250/328 233/252/330 202/268/346
f 233/252/330 235/254/332 202/268/346
f 235/254/332 237/256/334 202/268/346
f 237/256/334 239/258/336 202/268/346
f 239/258/336 241/260/338 202/268/346
f 241/260/338 243/262/340 202/268/346
f 243/262/340 245/264/342 202/268/346
f 245/264/342 247/266/344 202/268/346
f 247/266/344 249/245/323 202/268/346
f 249/245/323 228/244/322 202/268/346
s 6
f 178/269/347 177/270/348 204/271/349 205/272/350
f 179/273/351 178/269/347 205/272/350 207/274/352
f 180/275/353 179/273/351 207/274/352 209/276/354
f 181/277/355 180/275/353 209/276/354 211/278/356
f 182/279/357 181/277/355 211/278/356 213/280/358
f 183/281/359 182/279/357 213/280/358 215/282/360
f 184/283/361 183/281/359 215/282/360 217/284/362
f 185/285/363 184/283/361 217/284/362 219/286/364
f 186/287/365 185/288/363 219/289/364 221/290/366
f 187/291/367 186/287/365 221/290/366 223/292/368
f 188/293/369 187/291/367 223/292/368 225/294/370
f 177/270/348 188/293/369 225/294/370 204/271/349
s 7
f 190/295/371 191/296/372 230/297/373 227/298/374
f 191/296/372 192/299/375 232/300/376 230/297/373
f 192/299/375 193/301/377 234/302/378 232/300/376
f 193/301/377 194/303/379 236/304/380 234/302/378
f 194/303/379 195/305/381 238/306/382 236/304/380
f 195/305/381 196/307/383 240/308/384 238/306/382
f 196/307/383 197/309/385 242/310/386 240/308/384
f 197/309/385 198/311/387 244/312/388 242/310/386
f 198/313/387 199/314/389 246/315/390 244/316/388
f 199/314/389 200/317/391 248/318/392 246/315/390
f 200/317/391 201/319/393 250/320/394 248/318/392
f 201/319/393 190/295/371 227/298/374 250/320/394
